<?xml version="1.0" encoding="utf-8"?>
<!-- Generator: Adobe Illustrator 25.3.1, SVG Export Plug-In . SVG Version: 6.00 Build 0)  -->
<svg version="1.1" id="LOGO_automation.svg" xmlns="http://www.w3.org/2000/svg" xmlns:xlink="http://www.w3.org/1999/xlink"
	 x="0px" y="0px" width="295px" height="40px" viewBox="0 0 295 40" style="enable-background:new 0 0 295 40;"
	 xml:space="preserve">
<style type="text/css">
	.st0{fill:#EB0F0F;}
</style>
<g>
	<path d="M294.4,6.2l-12.3,22.7h-1.4l4.4-22.5c0.3-1.3,1.1-2.4,2.3-3.3c1.2-1,2.5-1.4,4-1.5c1.5,0,2.4,0.5,3,1.3
		C295,3.7,295,5.1,294.4,6.2z"/>
	<polygon points="211.3,10.2 211.3,3.5 218.5,0 218.5,6.7 	"/>
	<path d="M16.6,26.7l2-5.4h11l-2,5.4H16.6z"/>
	<path d="M43.5,6.1h3.6l13.1,32.8h-8.1l-3.5-9.1H37.9l-3.5,9.1h-4.5L43.5,6.1z M39,26.3h8.7l-4.3-11.1L39,26.3z"/>
	<path d="M77.1,36.9c-1.4,1.3-2.2,1.4-3.2,1.9c-1.1,0.5-2.4,0.6-3.9,0.6c-2.8,0-5-1-6.4-2.9c-0.8-1.2-1.3-3.1-1.3-5.7V16.1H69
		c0,0,0,6.4,0,12.2c0,2,0.1,3.3,0.5,4c0.7,1.7,1.8,2.5,3.4,2.5c1.8,0,2.8-0.9,3.4-2.5c0.4-1,0.5-1.9,0.5-3.7c0-1.2,0-12.5,0-12.5
		h6.8v22.8h-6.4L77.1,36.9z"/>
	<path d="M96.6,16.4h4.5v3.1h-4.5c0,0,0,10.9,0,12.5c0,1.5,0.2,2.5,0.7,3.2c0.4,0.6,1,1,2,1c0.4,0,1.8,0,1.8,0V39
		c0,0-2.4,0.4-4.6,0.4c-2.1,0-3.6-0.7-4.5-2s-1.4-3.1-1.4-5.5c0-2.6,0-12.4,0-12.4h-3.4v-3.1h3.4v-5.7l6.1-2.9L96.6,16.4L96.6,16.4z
		"/>
	<path d="M202.4,16.4h4.5v3.1h-4.5c0,0,0,10.9,0,12.5c0,1.5,0.2,2.5,0.7,3.2c0.4,0.6,1,1,2,1c0.4,0,1.8,0,1.8,0V39
		c0,0-2.4,0.4-4.6,0.4c-2.1,0-3.6-0.7-4.5-2s-1.4-3.1-1.4-5.5c0-2.6,0-12.4,0-12.4H193v-3.1h3.4v-5.7l6.1-2.9v8.6H202.4z"/>
	<path class="st0" d="M8.2,32c-0.6,1.5-0.7,2.5-0.5,3.2c0.2,0.6,0.6,1,1.6,1c0.4,0,0.7,0,0.7,0L9,39c0,0-2.5,0.4-4.8,0.4
		c-2.1,0-3.3-0.7-3.8-2C0,36.1,0.1,34.2,1,31.9c1-2.6,7.4-19.7,7.4-19.7h7.2C15.7,12.1,9.2,29.4,8.2,32z"/>
	<path d="M270.3,18.6c-1.4-2-3.5-2.9-6.4-2.9c-1.5,0-2.8,0.2-3.9,0.6c-1.1,0.3-2.3,0.9-3.2,1.6v-3.3l-6.5,3.1v21.2h6.9
		c0,0,0-11.3,0-12.5c0-1.7,0-2.9,0.4-3.9c0.6-1.5,1.6-2.2,3.4-2.2s2.8,0.7,3.4,2.1c0.3,0.7,0.5,2,0.5,4c0,5.7,0,12.6,0,12.6h6.6
		V24.3C271.6,21.7,271.1,19.8,270.3,18.6z"/>
	<path d="M163.6,17.6c-1.3-1.4-3.1-2.1-5.4-2.1c-2.9,0-5.3,0.8-7.3,3.7c-0.6-1.1-1.4-1.9-2.4-2.6c-1.1-0.7-2.4-1.1-4-1.1
		c-1.3,0-2.7,0.4-4.1,1.1c-1.3,0.7-2.2,1.3-3,2.3v-4.4l-6.5,3.1v21.2h6.6c0,0,0-10.7,0-14.1c0-3,1.4-4.7,3.9-4.7
		c2.2,0,3.6,1.3,3.6,4.5c0,1.6,0,14.2,0,14.2h6.4c0,0,0-12.6,0-14.3c0-3,1.4-4.6,4-4.6c2.3,0,3.6,1.8,3.6,3.5c0,0.9,0,15.3,0,15.3
		h6.6c0,0,0-14.1,0-15C165.7,21.2,165,19.1,163.6,17.6z"/>
	<path d="M171.2,20.1v-3.5c2.6-0.7,6-0.9,8.8-0.9c2.3,0,4.4,0.5,6.1,1.6c1.7,1,2.6,2.7,2.6,4.8c0,0,0,8.9,0,12.2
		c0,1.1,0.5,1.8,1.1,2c0.5,0.2,1.3,0.2,1.7,0.2v2.7c-1.2,0.2-2.6,0.3-4.3,0.3c-1.1,0-1.9-0.3-2.9-0.8c-0.8-0.4-1.3-0.9-1.9-1.7
		c-0.8,0.9-1.5,1.3-2.6,1.8c-1.2,0.5-2.3,0.7-3.5,0.7c-2,0-3.7-0.5-4.9-1.6c-1.3-1.1-1.9-2.6-1.9-4.6c0-1.1,0.3-2.4,0.8-3.4
		s1.2-1.7,2.1-2.2c1.1-0.6,3.1-1.3,5.9-2c1.6-0.4,2.8-0.8,3.4-1.2c0.5-0.4,0.7-0.9,0.7-1.8c0-1.1-0.2-1.8-1.2-2.5
		c-0.7-0.6-2.4-0.7-3.8-0.7C174.5,19.5,171.2,20.1,171.2,20.1z M176.2,32.6c0,2.1,1,2.8,2.8,2.8c2.3,0,3.3-1.2,3.3-4.2
		c0-2,0-3.1,0-3.1s-2.4,0.8-2.8,0.9c-0.4,0.1-0.8,0.3-1,0.4s-0.7,0.4-1,0.6C176.6,30.8,176.2,31.5,176.2,32.6z"/>
	<polygon class="st0" points="10.5,6.8 13,0.1 20.2,0.1 17.7,6.8 	"/>
	<path d="M221.1,36.2c-1,0-1.6-0.4-2-1c-0.4-0.7-0.7-1.7-0.7-3.2c0-1.7,0-19.4,0-19.4l-7.2,3.5c0,0,0,3,0,6.4v0.4l0,0
		c0,3.7,0,7.7,0,9c0,2.4,0.5,4.2,1.4,5.5c0.9,1.3,2.4,2,4.5,2c2.2,0,4.6-0.4,4.6-0.4v-2.8C221.8,36.2,221.5,36.2,221.1,36.2z"/>
	<path d="M222.8,28.1c0-3.7,1.1-6.7,3.2-9c1-1.1,2.2-1.9,3.8-2.6c1.5-0.6,3.1-0.9,4.6-0.9c1.6,0,3.2,0.3,4.8,0.8
		c1.6,0.5,2.9,1.3,3.8,2.4c2.1,2.2,3.1,5,3.1,8.3c0,2.4-0.5,4.6-1.4,6.5c-0.9,1.9-2.3,3.4-4.1,4.5s-3.9,1.6-6.3,1.6
		c-2.3,0-4.4-0.5-6.1-1.4c-1.7-0.9-3.1-2.3-4-4C223.3,32.4,222.8,30.4,222.8,28.1z M230.1,24.7c-0.2,1-0.2,2-0.2,3.2
		c0,5.5,1.5,8.3,4.5,8.3c1.2,0,2.1-0.4,2.7-1.1c0.6-0.8,1.1-1.8,1.4-3c0.4-1.5,0.6-3.4,0.6-5.6c0-0.5,0-1.2-0.1-2.1
		c-0.4-3.7-1.8-5.5-4.2-5.5c-1.5,0-2.6,0.6-3.3,1.8C230.7,21.9,230.3,23.2,230.1,24.7z"/>
	<path d="M103.7,28.1c0-3.7,1.1-6.7,3.2-9c1-1.1,2.2-1.9,3.8-2.6c1.5-0.6,3.1-0.9,4.6-0.9c1.6,0,3.2,0.3,4.8,0.8
		c1.6,0.5,2.9,1.3,3.8,2.4c2.1,2.2,3.1,5,3.1,8.3c0,2.4-0.5,4.6-1.4,6.5c-0.9,1.9-2.3,3.4-4.1,4.5c-1.8,1.1-3.9,1.6-6.3,1.6
		c-2.3,0-4.4-0.5-6.1-1.4s-3.1-2.3-4-4C104.2,32.4,103.7,30.4,103.7,28.1z M111.1,24.7c-0.2,1-0.2,2-0.2,3.2c0,5.5,1.5,8.3,4.5,8.3
		c1.2,0,2.1-0.4,2.7-1.1c0.6-0.8,1.1-1.8,1.4-3c0.4-1.5,0.6-3.4,0.6-5.6c0-0.5,0-1.2-0.1-2.1c-0.4-3.7-1.8-5.5-4.2-5.5
		c-1.5,0-2.6,0.6-3.3,1.8C111.7,21.9,111.2,23.2,111.1,24.7z"/>
	<path d="M282.7,36.1c0,2.1-1.7,3.8-3.8,3.8c-2.1,0-3.8-1.7-3.8-3.8s1.7-3.8,3.8-3.8S282.7,34,282.7,36.1z"/>
	<path d="M282.5,37.4c-0.7,2-2.9,3.1-4.9,2.3c-2-0.7-3.1-2.9-2.3-4.9s2.9-3.1,4.9-2.3C282.1,33.2,283.2,35.4,282.5,37.4z"/>
</g>
</svg>
