<?xml version="1.0" standalone="no"?><!DOCTYPE svg PUBLIC "-//W3C//DTD SVG 1.1//EN" "http://www.w3.org/Graphics/SVG/1.1/DTD/svg11.dtd"><svg t="1679390241540" class="icon" viewBox="0 0 1024 1024" version="1.1" xmlns="http://www.w3.org/2000/svg" p-id="4732" xmlns:xlink="http://www.w3.org/1999/xlink" width="200" height="200"><path d="M99.089687 199.909004" p-id="4733" fill="#ffffff"></path><path d="M286.686487 396.701324l47.563869-82.383593 27.763433 13.548451-70.197993 86.163083-0.087505-0.050269-0.333266 0.575302-49.529949-13.751389 12.725528-22.632262zM286.686487 545.646778l47.563869-82.383593 27.763433 13.548451-70.197993 86.163084-0.087505-0.050269-0.333266 0.575302-49.529949-13.751389 12.725528-22.632262zM300.078545 740.661062c12.96384 0 24.700742-5.254051 33.190633-13.743942 8.489891-8.489891 13.745804-20.228655 13.745804-33.192495s-5.255913-24.700742-13.745804-33.190632c-8.489891-8.489891-20.226793-13.745804-33.190633-13.745804-12.96384 0-24.702604 5.255913-33.192494 13.745804-8.489891 8.489891-13.743942 20.226793-13.743942 33.190632 0 12.96384 5.254051 24.702604 13.743942 33.192495 8.489891 8.489891 20.228655 13.743942 33.192494 13.743942z m51.764131 4.829556c-13.248698 13.248698-31.552233 21.444422-51.764131 21.444422-20.211898 0-38.517295-8.195724-51.765992-21.444422-13.248698-13.248698-21.444422-31.554095-21.444422-51.765993 0-20.211898 8.195724-38.515433 21.444422-51.76413 13.248698-13.248698 31.554095-21.446284 51.765992-21.446284 20.211898 0 38.515433 8.197585 51.764131 21.446284 13.248698 13.248698 21.446284 31.552233 21.446284 51.76413 0 20.211898-8.197585 38.517295-21.446284 51.765993zM421.953164 119.714909h191.003927c8.709585 0 16.637207 3.570967 22.386502 9.3184l0.050269 0.050269c5.747433 5.749295 9.3184 13.676916 9.3184 22.386502v29.817018c0 8.743098-3.570967 16.687476-9.3184 22.434909-5.749295 5.749295-13.693673 9.320262-22.436771 9.320262h-191.003927c-8.743098 0-16.687476-3.570967-22.436771-9.320262-5.747433-5.747433-9.3184-13.691811-9.3184-22.434909V151.47008c0-8.709585 3.570967-16.637207 9.3184-22.386502l0.050269-0.050269c5.749295-5.747433 13.676916-9.3184 22.386502-9.3184z m191.003927 26.273978h-191.003927c-1.51552 0-2.891404 0.610676-3.887477 1.593717a5.522897 5.522897 0 0 0-1.593716 3.887476v29.817018c0 1.49504 0.621847 2.865338 1.61792 3.861411 0.997935 0.997935 2.368233 1.619782 3.863273 1.619782h191.003927c1.49504 0 2.865338-0.621847 3.863273-1.619782 0.996073-0.996073 1.61792-2.366371 1.61792-3.861411V151.47008c0-1.51552-0.610676-2.891404-1.593717-3.887476a5.522897 5.522897 0 0 0-3.887476-1.593717z" p-id="4734" fill="#ffffff"></path><path d="M669.064844 502.359505h-0.536204" p-id="4735" fill="#ffffff"></path><path d="M404.939869 359.738647h331.844887v26.273978H404.939869zM404.939869 514.939811h331.844887v26.273978H404.939869zM404.939869 670.140975h165.921513v26.273978h-165.921513z" p-id="4736" fill="#ffffff"></path><path d="M692.857018 187.553978c-10.882327 0-19.705484-8.823156-19.705483-19.705483s8.823156-19.705484 19.705483-19.705484h108.583098c25.914647 0 49.466647 10.593745 66.524626 27.651724 17.061702 17.061702 27.653585 40.613702 27.653585 66.526487v315.816494c0 10.882327-8.823156 19.705484-19.705483 19.705484s-19.705484-8.823156-19.705484-19.705484V242.321222c0-15.034182-6.170065-28.725993-16.106589-38.662517-9.934662-9.934662-23.622749-16.104727-38.660655-16.104727H692.857018z m-126.037643 689.036567c10.882327 0 19.705484 8.823156 19.705483 19.705484s-8.823156 19.705484-19.705483 19.705484H221.938036c-25.918371 0-49.470371-10.591884-66.528349-27.649862-17.057978-17.057978-27.649862-40.609978-27.649862-66.528349V242.321222c0-25.918371 10.591884-49.470371 27.649862-66.528349 17.057978-17.057978 40.609978-27.649862 66.528349-27.649862h121.991913c10.882327 0 19.705484 8.823156 19.705484 19.705484s-8.823156 19.705484-19.705484 19.705483h-121.991913c-15.039767 0-28.729716 6.168204-38.664378 16.102866-9.934662 9.934662-16.102865 23.624611-16.102865 38.664378v579.50208c0 15.039767 6.168204 28.729716 16.102865 38.664378 9.934662 9.934662 23.624611 16.102865 38.664378 16.102865h344.881339z" p-id="4737" fill="#ffffff"></path><path d="M743.705135 791.177775c0 6.51264 1.109644 13.192844 3.066414 19.541643 2.053585 6.661585 5.039942 12.995491 8.664902 18.433862 3.282385 4.933818 7.168 9.331433 11.545134 13.159331 4.436713 3.880029 9.456175 7.212684 14.93923 9.947694 11.560029 5.766051 23.555724 7.992785 35.305658 7.019055 12.234007-1.012829 24.313484-5.494225 35.488116-13.051345 3.33824-2.258385 6.981818-5.620829 10.305164-9.340742 3.435055-3.846516 6.497745-8.039331 8.51968-11.772277 7.499404-13.848204 10.359156-29.113251 8.463825-43.620538-1.828305-14.00832-8.106356-27.38176-18.929105-38.141207-2.656815-2.640058-6.004364-5.48864-9.577193-8.078429-3.077585-2.230458-6.257571-4.200262-9.180625-5.561251-12.291724-5.721367-26.920029-7.778676-40.83712-5.838662-12.86144 1.792931-25.011665 6.989265-33.939084 15.844073-1.083578 1.074269-1.995869 1.815273-2.870924 2.526487-0.53248 0.431942-1.040756 0.845265-1.292102 1.161775-1.050065 1.321891-1.977251 2.291898-2.89885 3.260043-0.588335 0.616262-1.178531 1.236247-1.645848 1.811549-0.623709 0.768931-1.152465 1.465251-1.643985 2.1504l-1.791069 2.612131c-3.539316 5.287564-6.499607 11.65312-8.569949 18.364975-1.988422 6.447476-3.122269 13.192844-3.122269 19.571433z m-15.711884 25.31328c-2.548829-8.268335-3.9936-16.923927-3.9936-25.31328 0-8.244131 1.470836-16.981644 4.049454-25.34307 2.619578-8.495476 6.428858-16.648378 11.031273-23.52221 0.776378-1.159913 1.467113-2.176465 2.105717-3.070139l0.037236-0.039098c0.776378-1.081716 1.545309-2.100131 2.368233-3.116683 1.037033-1.275345 1.845062-2.124335 2.647505-2.965877 0.575302-0.605091 1.156189-1.212044 1.744524-1.953047 1.51552-1.908364 2.8672-3.004975 4.293352-4.163026 0.489658-0.398429 1.005382-0.817338 1.407535-1.215767 12.127884-12.029207 28.247505-19.035229 45.102545-21.384843 17.623971-2.455738 36.190022 0.171287 51.840466 7.45472 4.051316 1.886022 8.340945 4.531665 12.412742 7.482647 4.304524 3.120407 8.469411 6.682065 11.889571 10.081745 14.025076 13.943156 22.166807 31.31392 24.544349 49.531811 2.429673 18.593978-1.156189 38.007156-10.616088 55.472873-2.70336 4.993396-6.734196 10.524858-11.215592 15.54432-4.427404 4.95616-9.342604 9.474793-13.920815 12.572858-13.972945 9.450589-29.247302 15.067695-44.879127 16.361658-15.276218 1.266036-30.80192-1.595578-45.694604-9.022371-6.877556-3.431331-13.293382-7.715375-19.098531-12.792552-5.680407-4.965469-10.714764-10.668218-14.969018-17.048669l-0.039098-0.039099c-4.617309-6.929687-8.426589-15.008116-11.048029-23.512901z" p-id="4738" fill="#ffffff"></path><path d="M680.982342 691.665455l-0.268102 0.46173c-5.375069 9.271855-10.705455 18.458065-17.668655 30.561746l43.482764 50.129454c3.103651 3.52256 2.895127 5.328524 2.487389 8.435899-0.029789 0.580887-0.067025 0.951389-0.106123 1.230661-0.013033 0.301615 0 0.539927-0.072611 0.824786l-0.087506 5.514705h0.037237l0.037236 2.958429 0.221556 3.12227c0.147084 1.796655 0.195491 2.636335-0.541789 4.773701v0.037237c-0.666531 1.912087-1.236247 2.587927-2.224873 3.660334-0.312785 0.441251-0.582749 0.79872-1.133847 1.349818l-0.018618-0.018618c-0.433804 0.439389-1.050065 1.184116-1.595578 1.845062l-0.646051 0.767069-0.115433 0.193629-3.837207 4.384582c-0.238313 0.299753-0.385396 0.463593-0.679564 0.767069l-1.107782 1.280931c-0.171287 0.219695-0.387258 0.478487-0.726109 0.841542l-0.014894-0.013033-0.653498 0.735418v0.039099l-1.344233 1.549032c-0.539927 0.638604-1.100335 1.297687-2.183913 2.465048l0.031651 0.026065-2.072204 2.407331-0.014894-0.013033c-0.351884 0.437527-0.53248 0.625571-0.705629 0.79872l-3.038487 3.476015c-0.206662 0.282996-0.426356 0.564131-0.904844 1.068683l-1.180393 1.360989c-0.299753 0.381673-0.526895 0.619985-0.742865 0.83968l-8.919971 10.26048-0.039098 0.076335-1.468975 1.716596c-0.856436 1.027724-1.733353 2.074065-2.720116 3.105513-0.258793 0.320233-0.467316 0.538065-0.679564 0.761484l-1.858094 2.159709a9.906735 9.906735 0 0 1-0.729833 0.804305l-4.164887 4.823971 17.87904 31.092364 57.018181-11.046167 0.003724 0.022341 0.111709-0.022341c1.731491-0.361193 10.221382-2.094545 12.593338-1.78176l0.003724-0.02048c1.489455 0.247622 2.645644 0.806167 3.719913 1.44477h0.039098l1.115229 0.668393-0.011171 0.018618c1.096611 0.726109 2.090822 1.347956 3.021731 1.906502l3.308451 1.951186 3.732945 1.940014 1.360989 0.742866c1.599302 0.83968 2.379404 1.273484 3.80928 3.23584l0.039099 0.037236c1.150604 1.593716 1.347956 2.319825 1.718458 3.695709l0.156392 0.530618-0.022341 0.007448 13.816552 39.989992 1.012829 2.856029-0.035374 0.011171 6.399069 18.523229 0.039098 0.039099 0.160117 0.469178h35.895854l21.018066-60.874008-0.035375-0.01117 1.131985-3.293557c0.618124-1.189702 1.273484-2.221149 1.982837-3.373614 1.012829-0.664669 1.979113-1.327476 3.03104-1.917673 0.714938-0.312785 1.388916-0.646051 2.090822-0.997935v-0.037236c1.295825-0.646051 2.431535-1.230662 3.323345-1.712873 0.94208-0.508276 1.973527-1.096611 3.088756-1.768727h0.037237l6.931549-4.170473h2.675433c1.55648 0 3.509527 0.422633 5.151651 0.772655 20.558196 4.507462 41.889047 8.141731 62.61853 12.153949l17.495506-30.284335v-0.039098l0.441251-0.765207c-14.460742-16.657687-29.105804-33.240902-43.412015-50.014022-1.163636-1.355404-1.716596-1.990284-2.349614-4.310109l-0.037237-0.076335c-0.476625-1.800378-0.411462-2.502284-0.3072-3.82976l0.154531-1.664465 0.160117-3.299142c-0.003724-0.765207 0.035375-1.273484 0.078196-1.735214-0.009309 0.080058-0.022342 0.145222-0.022342-0.018619h0.024204l-0.175011-7.637178c-0.564131-5.226124 0.167564-6.088145 3.163229-8.718894 7.871767-9.160145 16.657687-19.243753 25.439884-29.321775l-0.02048-0.018618 17.314909-19.889804-0.335128-0.582749-0.02048 0.011171c-0.86016-1.45408-2.042415-3.539316-3.23584-5.646894-1.072407-1.889745-2.141091-3.775767-3.71805-6.391622-0.290444-0.482211-0.22528-0.415185-0.513862-0.923462l-1.215768-2.101993c-0.612538-1.100335-1.705425-2.952844-2.802036-4.810938-0.996073-1.688669-2.003316-3.397818-3.334516-5.823767l-2.759215-4.758807-14.341585 2.738734-0.003724-0.022342-9.100567 1.833891c-11.597265 2.345891-23.354647 4.727156-33.656087 6.482851l-6.305979 1.20832c-2.277004 0.625571-4.827695 1.260451-8.655592-0.867607-0.752175-0.418909-1.763142-1.107782-2.880233-1.880437-0.977455-0.659084-2.090822-1.426153-2.623302-1.7408l-2.103854-1.288378c-0.916015-0.55296-1.751971-1.024-2.533935-1.441047l-0.014895 0.029789-2.77597-1.467113-0.565993-0.26624-0.009309 0.022342c-4.794182-1.992145-5.220538-3.401542-6.263157-7.04512l0.027928-0.007447-21.254517-61.588946H794.158545c-3.885615 12.116713-8.026298 23.710255-12.127883 35.203259-2.975185 8.331636-5.941062 16.637207-6.896175 19.398283l-0.255069 0.834095c-0.215971 0.694458-0.435665 1.387055-0.670254 1.979113-0.461731 1.169222-0.806167 2.226735-1.148742 3.278661l-0.271826 0.835957c-1.725905 5.257775-3.23584 5.87776-6.752814 7.307636-0.039098 0.014895-0.031651 0.007447-0.003724-0.009309l-4.001047 2.08896c-0.565993 0.292305-1.493178 0.852713-2.425949 1.41312h-0.037237l-0.990487 0.59392-6.767709 4.442298-7.572014 0.158255-63.255273-12.224698z m-17.277673-9.391011l7.29088-12.572859 74.858124 14.470051c1.204596-0.791273 2.368233-1.57696 3.602618-2.316101l-0.009309-0.016757c1.040756-0.627433 2.072204-1.24928 3.580276-2.02752l2.062895-1.057513c0.264378-0.772655 0.530618-1.519244 0.802443-2.208116l0.208524-0.59392c0.100538-0.323956 0.221556-0.690735 0.562269-1.604887 3.446225-9.951418 5.129309-14.661818 6.81984-19.398284 5.067869-14.198225 10.191593-28.543535 14.092102-41.283956l2.144814-7.00416h64.130328l24.855272 72.02816 1.267899 0.636742v0.037236c1.251142 0.666531 2.424087 1.320029 3.474152 1.949324l1.947462 1.178531c0.742865 0.435665 1.675636 1.057513 2.60096 1.686807l4.550284-0.875055c11.800204-2.010764 22.531724-4.183505 33.119883-6.326458l9.180626-1.850647 0.076334-0.039098 28.398313-5.425339 4.168611 7.838255 5.34528 9.309091c0.729833 1.334924 1.936291 3.3792 3.148335 5.434647 0.869469 1.47456 1.753833 2.971462 3.032901 5.272669l1.424291 2.411055c1.051927 1.744524 2.506007 4.308247 3.948917 6.853353 0.886225 1.563927 1.792931 3.161367 3.079447 5.337832l0.039098 0.115433 2.978909 5.170269 0.465455 0.713076 0.130327 0.29603 4.099724 6.166341c-1.766865 2.066618-3.783215 4.738327-5.661789 6.616902-10.893498 12.623127-15.840349 18.296087-21.088815 24.320931h-0.037236c-7.685585 8.819433-15.378618 17.644451-23.706531 27.325906l0.124742 5.207505 0.039098 0.230865c0 0.256931-0.063302 0.943942-0.12288 1.632815v0.037236c-0.001862 0.027927-0.005585 0.011171-0.007447 0l-0.003724 0.063302c0.001862 1.385193-0.042822 2.209978-0.091229 3.001251l50.2784 57.919302-7.45472 12.911709-0.016757-0.009309-24.507112 42.503447c-25.27232-5.004567-50.581876-9.843433-75.870953-14.76608l-1.375884 0.826647 0.009309 0.016757c-1.174807 0.707491-2.502284 1.457804-3.934021 2.230458l-2.627026 1.390778-25.279767 73.214138h-63.923666l-4.706676-13.863098 0.022342-0.007447c-2.155985-6.224058-4.386444-12.464873-6.464233-18.71872h-0.039098c-4.434851-13.609891-9.337018-27.169513-14.015767-40.708655-0.755898-0.392844-1.496902-0.763345-2.234182-1.185978l0.009309-0.016756c-1.360989-0.770793-2.716393-1.589993-4.071796-2.377542l-2.364509-1.450356c-1.463389 0.357469-3.228393 1.409396-4.110895 1.589992-0.106124 0-0.249484 0.037236-0.344436 0.085644-21.133498 4.094138-42.449455 7.94624-63.514066 12.302895l-7.056291 1.6384-31.978589-55.614371c5.153513-5.968989 10.560233-13.002938 16.067491-18.562328 0.565993-0.727971 0.726109-0.897396 1.051927-1.223214l0.016757 0.016756c0.379811-0.394705 1.139433-1.301411 1.889745-2.200669l1.852509-2.178327 0.014895 0.013033 8.495476-9.776408c0.282996-0.377949 0.579025-0.688873 0.876917-0.996072l8.000232-9.284888 0.3072-0.269963 3.42016-4.001048 0.018618 0.016757 0.58275-0.642328c0.175011-0.234589 0.366778-0.487796 0.67584-0.828509l1.26045-1.441047c0.236451-0.297891 0.459869-0.541789 0.683288-0.774516l3.64544-4.213295 0.026065 0.022342 1.273484-1.541585-0.018618-0.433804c-0.072611-1.683084-0.115433-2.999389-0.115433-3.803695l0.039098-0.154531 0.087506-5.514705h-0.037237l0.005586-0.363055-50.149935-57.81504 3.464844-6.03229c5.313629-9.255098 13.300829-23.025105 21.213556-36.670371z m6.514502 162.644712l-0.080058 0.1024 0.080058-0.1024z m244.959418-56.699811l-0.007447 0.06144 0.007447-0.06144z m2.770386-16.050734l-0.039099 0.035374 0.039099-0.035374z m63.255272-53.527273l0.016757-0.009309-0.128466-0.22528 0.111709 0.234589z m-101.554734-14.762356l0.126603-0.024204-0.126603 0.024204z m-113.621178-8.692829c0.085644-0.044684 0.342575-0.182458 0.186181-0.106124l-0.186181 0.106124z" p-id="4739" fill="#ffffff"></path></svg>