<?xml version="1.0" standalone="no"?><!DOCTYPE svg PUBLIC "-//W3C//DTD SVG 1.1//EN" "http://www.w3.org/Graphics/SVG/1.1/DTD/svg11.dtd"><svg t="1712110356441" class="icon" viewBox="0 0 1024 1024" version="1.1" xmlns="http://www.w3.org/2000/svg" p-id="24133" id="mx_n_1712110356442" xmlns:xlink="http://www.w3.org/1999/xlink" width="200" height="200"><path d="M353.738667 246.069333a42.794667 42.794667 0 0 1 42.794666 42.794667v492.128a42.794667 42.794667 0 0 1-42.794666 42.794667H268.16a42.794667 42.794667 0 0 1-42.794667-42.794667V288.853333a42.794667 42.794667 0 0 1 42.794667-42.794666h85.578667z m246.08-139.093333a42.794667 42.794667 0 0 1 42.784 42.805333v631.210667a42.794667 42.794667 0 0 1-42.794667 42.794667h-85.589333a42.794667 42.794667 0 0 1-42.794667-42.794667V149.781333a42.794667 42.794667 0 0 1 42.794667-42.794666h85.589333zM845.866667 417.248a42.794667 42.794667 0 0 1 42.794666 42.794667v320.96A42.794667 42.794667 0 0 1 845.866667 823.786667h-85.589334a42.794667 42.794667 0 0 1-42.794666-42.794667v-320.96a42.794667 42.794667 0 0 1 42.794666-42.794667H845.866667z" fill="white" p-id="24134"></path><path d="M117.333333 85.333333a32 32 0 0 1 32 32v757.322667L906.666667 874.666667a32 32 0 0 1 0 64H117.333333a32 32 0 0 1-32-32V117.333333a32 32 0 0 1 32-32z m728.533334 331.904a42.794667 42.794667 0 0 1 42.805333 42.794667V608H717.493333V460.032a42.794667 42.794667 0 0 1 42.794667-42.794667H845.866667zM353.749333 246.08a42.794667 42.794667 0 0 1 42.794667 42.794667V522.666667H225.365333V288.853333a42.794667 42.794667 0 0 1 42.794667-42.784h85.578667z m246.08-139.093333a42.794667 42.794667 0 0 1 42.784 42.805333V437.333333H471.424V149.781333a42.794667 42.794667 0 0 1 42.794667-42.794666h85.589333z" fill="white" p-id="24135"></path></svg>