<?xml version="1.0" standalone="no"?><!DOCTYPE svg PUBLIC "-//W3C//DTD SVG 1.1//EN" "http://www.w3.org/Graphics/SVG/1.1/DTD/svg11.dtd"><svg t="1712109846384" class="icon" viewBox="0 0 1024 1024" version="1.1" xmlns="http://www.w3.org/2000/svg" p-id="5431" xmlns:xlink="http://www.w3.org/1999/xlink" width="200" height="200"><path d="M938.6752 896H85.3248C66.4832 896 51.2 880.384 51.2 861.0816V162.9184C51.2 143.616 66.4832 128 85.3248 128c18.8672 0 34.1504 15.616 34.1504 34.9184v663.2704h819.2c18.8416 0 34.1248 15.616 34.1248 34.8928S957.5168 896 938.6752 896z" fill="white" p-id="5432"></path><path d="M220.8 503.4752a34.1248 34.1248 0 0 1-22.3744-59.9552l214.3744-185.856a34.1248 34.1248 0 0 1 45.1072 0.3072l183.6032 163.6864 244.352-262.7328a34.1504 34.1504 0 0 1 49.9968 46.5152L668.7488 492.6208a34.048 34.048 0 0 1-47.6928 2.2016l-186.1888-165.888-191.744 166.2464c-6.1952 5.376-14.1056 8.2944-22.3232 8.2944z" fill="white" p-id="5433"></path><path d="M220.8 733.8752a34.1248 34.1248 0 0 1-22.3744-59.9552l214.3744-185.856a34.1248 34.1248 0 0 1 45.1072 0.3072l183.6032 163.6864 244.352-262.7328a34.1504 34.1504 0 0 1 49.9968 46.5152L668.7488 723.0208a34.048 34.048 0 0 1-47.6928 2.2016l-186.1888-165.888-191.744 166.2464c-6.1952 5.376-14.1056 8.2944-22.3232 8.2944z" fill="white" p-id="5434"></path></svg>