<?xml version="1.0" standalone="no"?><!DOCTYPE svg PUBLIC "-//W3C//DTD SVG 1.1//EN" "http://www.w3.org/Graphics/SVG/1.1/DTD/svg11.dtd"><svg t="1645441029050" class="icon" viewBox="0 0 1024 1024" version="1.1" xmlns="http://www.w3.org/2000/svg" p-id="1272" xmlns:xlink="http://www.w3.org/1999/xlink" width="200" height="200"><defs><style type="text/css"></style></defs><path d="M448 896v64H192A128 128 0 0 1 64 832V192A128 128 0 0 1 192 64h640a128 128 0 0 1 128 128v256h-64V192a64 64 0 0 0-64-64H192a64 64 0 0 0-64 64v640a64 64 0 0 0 64 64h256zM320.704 489.6a185.792 185.792 0 0 0 244.288 191.808L602.56 668.8l213.504 213.504a47.04 47.04 0 0 0 66.304 0 47.04 47.04 0 0 0 0-66.304L668.864 602.432 681.6 564.8a185.856 185.856 0 0 0-44.672-190.528 184.512 184.512 0 0 0-147.392-53.504l46.528 46.528c46.592 46.592 46.592 122.24 0 168.896a119.488 119.488 0 0 1-168.832 0L320.64 489.6z m-59.456-35.008a52.48 52.48 0 0 1 88.64-26.24l62.592 62.528a55.488 55.488 0 0 0 78.336 0 55.488 55.488 0 0 0 0-78.336l-62.592-62.528a52.672 52.672 0 0 1-13.248-52.352 52.288 52.288 0 0 1 39.552-36.288 249.6 249.6 0 0 1 287.68 323.904l185.408 185.472a111.04 111.04 0 0 1 0 156.8 111.04 111.04 0 0 1-156.8 0L585.344 742.144a250.816 250.816 0 0 1-133.76 7.168 249.92 249.92 0 0 1-190.336-294.72z" p-id="1273" fill="#0056d5"></path></svg>