<?xml version="1.0" standalone="no"?><!DOCTYPE svg PUBLIC "-//W3C//DTD SVG 1.1//EN" "http://www.w3.org/Graphics/SVG/1.1/DTD/svg11.dtd"><svg t="1645441411118" class="icon" viewBox="0 0 1024 1024" version="1.1" xmlns="http://www.w3.org/2000/svg" p-id="4292" xmlns:xlink="http://www.w3.org/1999/xlink" width="200" height="200"><defs><style type="text/css"></style></defs><path d="M516.07552 0l425.51296 186.1632v279.32672c0 258.2528-181.5552 500.08064-425.51296 558.51008C275.6608 965.30432 95.39584 728.73984 91.62752 473.64096l-0.06144-8.15104V186.14272L516.07552 0z m0.1024 81.92l-343.6544 156.3648v234.63936c0 216.8832 146.96448 419.328 343.6544 469.15584 197.48864-49.09056 344.4736-252.2112 344.4736-469.15584V238.2848L516.17792 81.92z m0.4096 143.36c134.12352 0 242.85184 110.03904 242.85184 245.76 0 53.08416-16.62976 102.21568-44.89216 142.39744l43.88864 44.40064-57.2416 57.93792-43.90912-44.40064A239.8208 239.8208 0 0 1 516.58752 716.8c-134.144 0-242.8928-110.03904-242.8928-245.76s108.7488-245.76 242.8928-245.76z m0 81.92c-89.43616 0-161.91488 73.35936-161.91488 163.84s72.4992 163.84 161.91488 163.84a159.744 159.744 0 0 0 82.24768-22.69184l-40.7552-41.22624 57.2416-57.93792 40.7552 41.24672A164.5568 164.5568 0 0 0 678.48192 471.04c0-90.48064-72.4992-163.84-161.8944-163.84z" p-id="4293" fill="#0056d5"></path></svg>