<?xml version="1.0" standalone="no"?><!DOCTYPE svg PUBLIC "-//W3C//DTD SVG 1.1//EN" "http://www.w3.org/Graphics/SVG/1.1/DTD/svg11.dtd"><svg t="1645440429525" class="icon" viewBox="0 0 1024 1024" version="1.1" xmlns="http://www.w3.org/2000/svg" p-id="9721" xmlns:xlink="http://www.w3.org/1999/xlink" width="200" height="200"><defs><style type="text/css"></style></defs><path d="M689.379556 49.948444C434.176-48.014222 147.911111 79.445333 49.948444 334.620444c-97.962667 255.203556 29.496889 541.468444 285.582223 639.772445 80.497778 28.672 148.394667 38.4 204.316444 27.875555a39.822222 39.822222 0 1 0-14.734222-78.250666c-39.992889 7.509333-94.492444-0.284444-161.934222-24.32C149.048889 817.493333 42.097778 577.308444 124.302222 363.178667 206.506667 149.048889 446.691556 42.097778 660.821333 124.302222 874.951111 206.506667 981.902222 446.691556 899.697778 660.821333a416.426667 416.426667 0 0 1-46.279111 87.808l-1.507556 2.133334-315.477333-265.955556a39.822222 39.822222 0 0 0-53.504 1.962667l-2.616889 2.816a39.822222 39.822222 0 0 0 1.962667 53.475555l2.816 2.616889L862.435556 863.886222l25.713777-30.037333a494.165333 494.165333 0 0 0 85.902223-144.497778c97.934222-255.146667-29.525333-541.44-284.728889-639.431111z" p-id="9722" fill="#0056d5"></path><path d="M491.178667 273.976889a238.933333 238.933333 0 1 0 41.642666 476.046222 39.822222 39.822222 0 0 0-6.940444-79.36 159.288889 159.288889 0 1 1 144.782222-172.544 39.822222 39.822222 0 0 0 79.36-6.940444 238.933333 238.933333 0 0 0-258.844444-217.201778z" p-id="9723" fill="#0056d5"></path></svg>